{
  "accessors": [
    {
      "bufferView": 3,
      "componentType": 5126,
      "count": 1379,
      "max": [
        0.3196178078651428,
        1.176813006401062,
        0.3255157470703125
      ],
      "min": [
        -0.31867516040802,
        -0.35223984718322754,
        -0.33300966024398804
      ],
      "type": "VEC3"
    },
    {
      "bufferView": 3,
      "byteOffset": 16548,
      "componentType": 5126,
      "count": 1379,
      "max": [
        1.0,
        1.0,
        1.0
      ],
      "min": [
        -1.0,
        -1.0,
        -1.0
      ],
      "type": "VEC3"
    },
    {
      "bufferView": 2,
      "componentType": 5126,
      "count": 1379,
      "max": [
        0.9242714643478394,
        0.9548529386520386
      ],
      "min": [
        0.006953984498977661,
        0.02592490240931511
      ],
      "type": "VEC2"
    },
    {
      "bufferView": 1,
      "componentType": 5125,
      "count": 4260,
      "type": "SCALAR"
    },
    {
      "bufferView": 5,
      "componentType": 5126,
      "count": 3,
      "max": [
        1.0,
        0.0,
        0.0,
        0.0,
        1.510725127218393e-07,
        1.0,
        1.510725127218393e-07,
        0.0,
        0.0,
        0.0,
        1.0,
        0.0,
        2.7107738276299642e-08,
        0.0,
        2.629717998914316e-09,
        1.0
      ],
      "min": [
        4.371138828673793e-08,
        -1.510725127218393e-07,
        -1.0,
        0.0,
        0.0,
        -1.0000001192092896,
        0.0,
        0.0,
        -1.0,
        -1.510725127218393e-07,
        -4.3711366970455856e-08,
        0.0,
        0.0,
        -0.040439918637275696,
        -2.447802138760835e-08,
        1.0
      ],
      "type": "MAT4"
    },
    {
      "bufferView": 0,
      "componentType": 5123,
      "count": 1379,
      "type": "VEC4"
    },
    {
      "bufferView": 4,
      "componentType": 5126,
      "count": 1379,
      "max": [
        1.0,
        0.5,
        0.0,
        0.0
      ],
      "min": [
        0.5,
        0.0,
        0.0,
        0.0
      ],
      "type": "VEC4"
    },
    {
      "bufferView": 6,
      "componentType": 5126,
      "count": 197,
      "max": [
        8.333333015441895
      ],
      "min": [
        0.0416666679084301
      ],
      "type": "SCALAR"
    },
    {
      "bufferView": 7,
      "componentType": 5126,
      "count": 197,
      "max": [
        2.617854595184326,
        6.3007073402404785,
        7.714729690633249e-07
      ],
      "min": [
        -3.8879027366638184,
        0.040439918637275696,
        2.447802138760835e-08
      ],
      "type": "VEC3"
    },
    {
      "bufferView": 6,
      "byteOffset": 788,
      "componentType": 5126,
      "count": 54,
      "max": [
        8.333333015441895
      ],
      "min": [
        0.0416666679084301
      ],
      "type": "SCALAR"
    },
    {
      "bufferView": 8,
      "componentType": 5126,
      "count": 54,
      "max": [
        1.4001055665595428e-14,
        1.2246930225501274e-07,
        0.9999222755432129,
        1.0
      ],
      "min": [
        -1.2509776234923085e-14,
        -1.3434841150683496e-07,
        -0.9999953508377075,
        0.003047730540856719
      ],
      "type": "VEC4"
    },
    {
      "bufferView": 6,
      "byteOffset": 1004,
      "componentType": 5126,
      "count": 32,
      "max": [
        8.333333015441895
      ],
      "min": [
        0.0416666679084301
      ],
      "type": "SCALAR"
    },
    {
      "bufferView": 7,
      "byteOffset": 2364,
      "componentType": 5126,
      "count": 32,
      "max": [
        1.0000004768371582,
        1.0000004768371582,
        1.0
      ],
      "min": [
        0.9999997615814209,
        0.9999997615814209,
        1.0
      ],
      "type": "VEC3"
    },
    {
      "bufferView": 6,
      "byteOffset": 1132,
      "componentType": 5126,
      "count": 182,
      "max": [
        8.333333015441895
      ],
      "min": [
        0.0416666679084301
      ],
      "type": "SCALAR"
    },
    {
      "bufferView": 7,
      "byteOffset": 2748,
      "componentType": 5126,
      "count": 182,
      "max": [
        4.768372150465439e-07,
        -0.05784642696380615,
        1.7053025658242404e-13
      ],
      "min": [
        -4.768372150465439e-07,
        -0.05784738063812256,
        -1.4210854715202004e-13
      ],
      "type": "VEC3"
    },
    {
      "bufferView": 6,
      "byteOffset": 1860,
      "componentType": 5126,
      "count": 133,
      "max": [
        8.333333015441895
      ],
      "min": [
        0.0416666679084301
      ],
      "type": "SCALAR"
    },
    {
      "bufferView": 8,
      "byteOffset": 864,
      "componentType": 5126,
      "count": 133,
      "max": [
        -0.7071067690849304,
        1.0088102797567444e-08,
        0.7071067690849304,
        1.1691248857914616e-07
      ],
      "min": [
        -0.7071067690849304,
        -1.8735427431693097e-08,
        0.7071067690849304,
        8.808896012624245e-08
      ],
      "type": "VEC4"
    },
    {
      "bufferView": 6,
      "byteOffset": 2392,
      "componentType": 5126,
      "count": 200,
      "max": [
        8.333333015441895
      ],
      "min": [
        0.0416666679084301
      ],
      "type": "SCALAR"
    },
    {
      "bufferView": 7,
      "byteOffset": 4932,
      "componentType": 5126,
      "count": 200,
      "max": [
        1.1871845722198486,
        1.1871845722198486,
        1.1871846914291382
      ],
      "min": [
        0.8795202970504761,
        0.8795201778411865,
        0.8795202374458313
      ],
      "type": "VEC3"
    }
  ],
  "animations": [
    {
      "channels": [
        {
          "sampler": 0,
          "target": {
            "node": 8,
            "path": "translation"
          }
        },
        {
          "sampler": 1,
          "target": {
            "node": 8,
            "path": "rotation"
          }
        },
        {
          "sampler": 2,
          "target": {
            "node": 8,
            "path": "scale"
          }
        },
        {
          "sampler": 3,
          "target": {
            "node": 9,
            "path": "translation"
          }
        },
        {
          "sampler": 4,
          "target": {
            "node": 9,
            "path": "rotation"
          }
        },
        {
          "sampler": 5,
          "target": {
            "node": 9,
            "path": "scale"
          }
        }
      ],
      "name": "NaveR",
      "samplers": [
        {
          "input": 7,
          "interpolation": "LINEAR",
          "output": 8
        },
        {
          "input": 9,
          "interpolation": "LINEAR",
          "output": 10
        },
        {
          "input": 11,
          "interpolation": "LINEAR",
          "output": 12
        },
        {
          "input": 13,
          "interpolation": "LINEAR",
          "output": 14
        },
        {
          "input": 15,
          "interpolation": "LINEAR",
          "output": 16
        },
        {
          "input": 17,
          "interpolation": "LINEAR",
          "output": 18
        }
      ]
    }
  ],
  "asset": {
    "extras": {
      "author": "wanderjogos (https://sketchfab.com/wanderjogos)",
      "license": "CC-BY-4.0 (http://creativecommons.org/licenses/by/4.0/)",
      "source": "https://sketchfab.com/3d-models/rocket3-22f8f0722bcb424387b21ee82177b40a",
      "title": "Rocket3"
    },
    "generator": "Sketchfab-15.29.0",
    "version": "2.0"
  },
  "bufferViews": [
    {
      "buffer": 0,
      "byteLength": 11032,
      "byteStride": 8,
      "name": "shortBufferViews",
      "target": 34962
    },
    {
      "buffer": 0,
      "byteLength": 17040,
      "byteOffset": 11032,
      "name": "floatBufferViews",
      "target": 34963
    },
    {
      "buffer": 0,
      "byteLength": 11032,
      "byteOffset": 28072,
      "byteStride": 8,
      "name": "floatBufferViews",
      "target": 34962
    },
    {
      "buffer": 0,
      "byteLength": 33096,
      "byteOffset": 39104,
      "byteStride": 12,
      "name": "floatBufferViews",
      "target": 34962
    },
    {
      "buffer": 0,
      "byteLength": 22064,
      "byteOffset": 72200,
      "byteStride": 16,
      "name": "floatBufferViews",
      "target": 34962
    },
    {
      "buffer": 0,
      "byteLength": 192,
      "byteOffset": 94264,
      "name": "floatBufferViews"
    },
    {
      "buffer": 0,
      "byteLength": 3192,
      "byteOffset": 94456,
      "name": "floatBufferViews"
    },
    {
      "buffer": 0,
      "byteLength": 7332,
      "byteOffset": 97648,
      "byteStride": 12,
      "name": "floatBufferViews"
    },
    {
      "buffer": 0,
      "byteLength": 2992,
      "byteOffset": 104980,
      "byteStride": 16,
      "name": "floatBufferViews"
    }
  ],
  "buffers": [
    {
      "byteLength": 107972,
      "uri": "scene.bin"
    }
  ],
  "images": [
    {
      "uri": "textures/Material.003_baseColor.png"
    }
  ],
  "materials": [
    {
      "doubleSided": true,
      "name": "Material.003",
      "pbrMetallicRoughness": {
        "baseColorTexture": {
          "index": 0
        },
        "metallicFactor": 0.0,
        "roughnessFactor": 0.5
      }
    }
  ],
  "meshes": [
    {
      "name": "Object_0",
      "primitives": [
        {
          "attributes": {
            "JOINTS_0": 5,
            "NORMAL": 1,
            "POSITION": 0,
            "TEXCOORD_0": 2,
            "WEIGHTS_0": 6
          },
          "indices": 3,
          "material": 0,
          "mode": 4
        }
      ]
    }
  ],
  "nodes": [
    {
      "children": [
        1
      ],
      "matrix": [
        1.0,
        0.0,
        0.0,
        0.0,
        0.0,
        2.220446049250313e-16,
        -1.0,
        0.0,
        0.0,
        1.0,
        2.220446049250313e-16,
        0.0,
        0.0,
        0.0,
        0.0,
        1.0
      ],
      "name": "Sketchfab_model"
    },
    {
      "children": [
        2
      ],
      "name": "root"
    },
    {
      "children": [
        3
      ],
      "matrix": [
        1.0,
        0.0,
        0.0,
        0.0,
        0.0,
        2.220446049250313e-16,
        1.0,
        0.0,
        0.0,
        -1.0,
        2.220446049250313e-16,
        0.0,
        0.0,
        0.0,
        0.0,
        1.0
      ],
      "name": "GLTF_SceneRootNode"
    },
    {
      "children": [
        4
      ],
      "name": "Armature_3"
    },
    {
      "children": [
        5,
        7,
        6
      ],
      "name": "GLTF_created_0"
    },
    {
      "children": [
        8
      ],
      "name": "GLTF_created_0_rootJoint"
    },
    {
      "name": "NaveRed_2"
    },
    {
      "mesh": 0,
      "name": "Object_7",
      "skin": 0
    },
    {
      "children": [
        9
      ],
      "name": "Corpo_1",
      "translation": [
        0.0,
        0.040439918637275696,
        2.447802138760835e-08
      ]
    },
    {
      "name": "Fogos_0",
      "rotation": [
        -0.7071068286895752,
        5.0242962053173926e-15,
        0.7071068286895752,
        1.0682440176879027e-07
      ],
      "scale": [
        1.0,
        0.9999999403953552,
        1.0
      ],
      "translation": [
        7.764702354282692e-23,
        -0.057846903800964355,
        -1.7763568394002505e-15
      ]
    }
  ],
  "samplers": [
    {
      "magFilter": 9729,
      "minFilter": 9987,
      "wrapS": 10497,
      "wrapT": 10497
    }
  ],
  "scene": 0,
  "scenes": [
    {
      "name": "Sketchfab_Scene",
      "nodes": [
        0
      ]
    }
  ],
  "skins": [
    {
      "inverseBindMatrices": 4,
      "joints": [
        5,
        8,
        9
      ],
      "skeleton": 5
    }
  ],
  "textures": [
    {
      "sampler": 0,
      "source": 0
    }
  ]
}
